<?xml version="1.0"?>
<svg xmlns="http://www.w3.org/2000/svg" version="1.2" baseProfile="tiny" width="800" height="627" viewBox="0 0 800 627" stroke-linecap="round" stroke-linejoin="round">
<g id="new_map_">
<path d="M 226.72 360.67 224.95 355.31 218.34 348 206.62 359.62 202.92 354.45 190.69 350.45 185.58 344.84 186.09 339.52 178.15 334.74 175.32 330.31 176.47 324.35 184.21 321.03 191.82 324.99 199.32 326.28 207.15 321.03 211.33 313.85 219.93 309 230.28 309.72 237 313.67 244.74 315.86 249.01 320.68 253.94 322.84 264.23 323.48 269.12 326.75 269.03 334.97 265.69 342.75 257.42 347.74 254.14 355.04 257.57 359.32 252.06 364.03 246.78 362.04 241.32 366.53 228.22 363.62 226.72 360.67 Z"/>
<path d="M 264.27 452.48 260.73 445.58 255.2 438.57 246.38 436.87 249.06 429.43 239.3 428.17 227.98 432 227.32 439.54 230.32 447.69 223.76 454.5 217.12 446.5 212.25 446.9 206.22 443.97 204.62 437.75 207.26 433.98 195.09 421.52 195.98 412.22 205.89 410 208.63 407.28 207.21 403.07 225.06 402.69 226.85 398.58 232.76 395.61 235.96 400.14 233.07 404.5 237.89 410.16 245.01 414.26 252.99 421.4 259.43 418.51 265.98 428.41 266.97 439.46 270.82 444.41 267.72 452.02 264.27 452.48 Z"/>
<path d="M 284.84 288.39 276.97 287.47 283.69 298.68 288.69 300.78 289.48 307.25 286.59 313.34 274.73 300.39 271.48 300.26 266.99 308.96 259.98 308.91 254.72 306.95 250.94 309.46 238.42 303.91 229.64 302.64 221.52 305.85 223.56 298.13 232.54 294.27 233.86 286.97 229.95 284.69 230.46 271.06 234.66 271.04 243.75 275.12 246.84 271.64 256.38 267.69 257.81 275.12 268.56 274.29 276.04 279.52 280.46 279.57 284.84 288.39 Z"/>
<path d="M 249.21 134.41 243.08 144.6 238.51 150.52 226.32 161.91 219.55 165.37 212.23 164.07 213.94 160.58 211.92 153.24 206.86 153.06 204.18 146.42 200.33 144 194.54 147.26 188.5 141.16 179.48 139.02 169 140.93 167.96 143.59 155.22 146.8 147.17 143.82 149.29 141.26 148.14 134.84 150.46 129.85 174.24 127.17 182.64 124.6 184.37 118.15 187.71 114.12 195.65 108.47 205.47 108.22 212.59 106.33 215.86 97.18 223.56 98.27 221.63 106.5 225.64 116.83 235.37 121.36 241.87 122.3 241.25 127.71 249.21 134.41 Z"/>
<path d="M 114.94 297.61 117.95 301.41 115.54 305.24 122.44 306.72 117.13 311.22 109.99 298.2 114.94 297.61 Z"/>
<path d="M 118.79 347.28 123.1 351.84 133.85 354.55 136.26 358.37 132.08 361.68 128.59 367.83 111.49 355.04 110.52 349.23 114.9 345.75 118.79 347.28 Z"/>
<path d="M 456.71 391.43 455.51 397.92 447.55 401.55 450.51 393.77 456.71 391.43 Z M 494.44 396.75 492.27 391.68 494.46 385.41 498.77 386.31 500.63 394.13 494.44 396.75 Z M 449.72 369.02 450.82 375.09 441.58 382.66 439.5 374.25 445.69 368.13 449.72 369.02 Z M 502.29 359.77 504.21 361.28 498.82 367.47 494.57 360.76 486.7 356.13 483.51 350.47 476.92 346.47 478.16 342.45 484.15 339.8 489.17 343.05 490.96 347.51 501.12 348.64 499.37 353.86 502.29 359.77 Z M 523.98 417.75 529.05 421.42 527.52 428.71 522.61 431.54 514.01 427.54 518.19 420.38 523.98 417.75 Z M 541.43 385.52 547.03 388.7 537.08 393.67 532.3 392.59 536.13 384.72 541.43 385.52 Z M 506.69 368.46 508.97 371.03 522.1 371.91 527.15 377.03 523.94 381.79 518.85 382 504.5 372.61 506.69 368.46 Z" fill-rule="evenodd"/>
<path d="M 219.55 165.37 223.47 168.11 223.56 174.4 203.83 173.89 188.97 169.88 182.88 169.37 178.31 174.55 172.11 175.59 167.54 172.61 163.62 170.02 150.11 170.24 148.78 164.4 148.78 154.32 142.48 154.68 138.01 147.76 140.97 146.29 147.17 143.82 155.22 146.8 167.96 143.59 169 140.93 179.48 139.02 188.5 141.16 194.54 147.26 200.33 144 204.18 146.42 206.86 153.06 211.92 153.24 213.94 160.58 212.23 164.07 219.55 165.37 Z"/>
<path d="M 389.8 352.81 394.98 350.85 395 350.81 397.46 347.28 399.05 342.44 402.85 336.41 408.56 333.53 410.11 328.89 407.1 325.54 407.43 319.41 410.79 314 421.9 322.59 421.21 326.23 414.4 329.07 418.02 340.48 416.79 345.17 422.67 357.91 419.15 364.13 420.63 368.08 415.79 370.33 410.28 369.68 408.82 364.46 403.49 357.74 389.8 352.81 Z"/>
<path d="M 690.67 450.93 686.43 449.99 691.78 444.18 697.09 441.68 709.85 438.95 717.57 440.02 718.21 443.42 707.77 445.17 696.8 451.59 690.67 450.93 Z"/>
<path d="M 607.47 288.7 610.5 290.66 608.11 302.91 610.35 309.54 606.04 314.31 606.04 318.67 594.89 324.32 583.79 316.35 586.09 313.34 592.72 311.56 595.07 304.44 591.73 299.05 583.41 294.22 581.09 290.4 585.71 285.64 595.99 284.97 607.47 288.7 Z"/>
<path d="M 42.11 175.41 48.64 177.96 47.31 182.71 39.7 185.38 41.61 190.99 47.07 193.08 45.52 197.72 47.89 205.92 60.49 207.89 63.26 216.3 42.31 208.37 37.51 196.31 33.42 195.48 24.33 187.3 20.15 180.62 23.62 176.94 35.68 177.08 42.11 175.41 Z"/>
<path d="M 175.5 217.08 169.97 216.96 163.44 210.72 160.3 204.08 159.2 195.04 154.04 189.66 158.25 185.76 164.15 187.35 162.78 178.61 167.54 172.61 172.11 175.59 178.31 174.55 182.88 169.37 188.97 169.88 203.83 173.89 223.56 174.4 229.64 175.62 223.89 181.46 227.36 188.23 233.22 185.97 237.47 192.39 242.89 192.88 250.23 196.7 245.92 201.61 234.75 203.19 230.79 200.85 225.37 203.76 216.55 205.13 213.01 209.03 195.65 209.97 188.19 216.37 179.79 212.96 175.5 217.08 Z"/>
<path d="M 223.56 98.27 215.86 97.18 215.84 91.5 209.49 88.57 207.04 82.02 215.06 80.39 214.29 74.32 215.9 70.73 225.19 63.38 225.5 60.2 238.6 55 245.69 56.78 250.05 53.68 257.17 53.04 264.91 55.84 264.12 63.38 256.07 67.61 256.8 70.91 265.33 71.52 267.04 76.16 291.14 81.81 284.11 90.02 277.94 93.81 274.16 96.42 266.97 96.57 262.1 100.8 252.57 95.75 243.95 95.24 230.06 96.49 223.56 98.27 Z"/>
<path d="M 178.84 234.6 181.96 240.25 177.36 247.92 186.56 251.98 187.6 259.01 195.29 259.59 192.35 267.32 195 273.74 215.46 277.91 216.83 273.74 224.55 274.24 227.12 270.53 230.46 271.06 229.95 284.69 233.86 286.97 232.54 294.27 223.56 298.13 221.52 305.85 218.47 304.32 213.14 308.75 200.62 307.58 187.68 312.62 186.73 307.78 177.24 303.27 167.51 306.25 164.22 310.43 157.96 312.12 152.56 305.36 155.17 303.68 151.32 295.38 145.75 293.77 145.86 286.15 141.84 278.68 136.35 278.84 132.33 268.23 122.86 270.71 119.63 264.46 124.23 260.64 121 255.97 132.7 256.16 141.86 254.14 149.64 259.57 155.64 255.72 156.94 250.24 152.36 244.58 153.65 238.65 159.82 237.45 167.18 238.37 175.56 234.14 178.84 234.6 Z"/>
<path d="M 460.16 451.93 462.41 458.68 458.08 460.23 443.72 460.24 446.38 452.36 450.4 455.87 455.67 452.33 460.16 451.93 Z M 477.41 427.56 483.14 434.65 478 438.06 472.67 427.23 477.41 427.56 Z M 462.35 413.8 458.79 418.47 453.34 416.96 454.94 412.78 462.35 413.8 Z" fill-rule="evenodd"/>
<path d="M 232.76 395.61 226.85 398.58 225.06 402.69 207.21 403.07 204.74 396.63 195.47 385.51 178.84 374.4 171.98 373.28 173.24 368.67 171.05 362.62 166.01 358.93 152.92 353.51 154.13 346.52 163.11 345.75 171.76 337.62 175.32 330.31 178.15 334.74 186.09 339.52 185.58 344.84 190.69 350.45 202.92 354.45 206.62 359.62 218.34 348 224.95 355.31 226.72 360.67 219.27 367.31 218.23 372.08 220 379.5 218.27 386.07 226.43 385.43 228.86 389.13 235.99 392.6 232.76 395.61 Z"/>
<path d="M 223.98 244.38 217.96 248.73 215.75 254.62 220.35 259.05 219.38 261.6 227.12 270.53 224.55 274.24 216.83 273.74 215.46 277.91 195 273.74 192.35 267.32 195.29 259.59 187.6 259.01 186.56 251.98 177.36 247.92 181.96 240.25 178.84 234.6 188.92 228.45 203.25 227.69 207.34 233.22 207.28 238.75 210.75 239.61 216.5 235.63 224.35 241.25 223.98 244.38 Z"/>
<path d="M 644.61 373.05 644.72 376.95 639.85 380.08 639.76 377.21 642.86 376.31 644.61 373.05 Z"/>
<path d="M 561.67 285.79 560.5 289.99 556.07 290.17 555.06 284.28 561.67 285.79 Z"/>
<path d="M 408.12 279.98 420.63 278.42 427.98 280.01 426.83 286.6 436.25 292.77 433.29 295.3 432.91 304.39 439.3 315.18 440.56 321.24 457.28 326.67 468.89 325.72 468.6 337.02 463.36 343.28 459.25 343.71 453.88 338.22 449.87 342.5 443.19 337.19 443.97 333.73 432.91 326.97 434.77 323.58 427.58 318.54 430.32 315.27 420.97 309.16 419.93 304.81 410.86 305.13 409.58 294.35 411.48 286.51 407.61 285.64 408.12 279.98 Z M 468.12 255.72 467.5 260.08 473.89 262.95 476.54 269.31 470.51 269.15 466.28 263.54 455.2 259.8 459.09 250.9 468.12 255.72 Z" fill-rule="evenodd"/>
<path d="M 291.14 81.81 267.04 76.16 265.33 71.52 256.8 70.91 256.07 67.61 264.12 63.38 264.91 55.84 277.39 57.58 288.16 56.61 292.69 51.51 297.93 55.16 304.39 50.54 302.8 38.8 313.44 37.41 313.59 49.3 323.28 50.06 328.61 53.81 340.29 57.06 345.88 68.12 338.87 71.79 332.57 71.75 324.41 73.96 324.72 78.81 317.73 84.24 302.75 83.47 296.47 85.73 291.14 81.81 Z"/>
<path d="M 117.64 264.69 120.67 276.38 119.34 282.86 112.18 286.02 104.61 283.98 104.46 278.35 111.56 265.45 117.64 264.69 Z"/>
<path d="M 325.58 127.4 316.05 124.88 308.66 113.21 316.78 113.21 323.12 110.3 315.94 100.36 327.61 99.58 339.09 101.64 337.81 106.36 347.45 110.4 347.56 113.69 339.03 116.12 340.73 120.72 335 125.47 331 120.3 325.58 127.4 Z"/>
<path d="M 408.56 333.53 402.85 336.41 399.05 342.44 394.14 339.76 392.37 335.2 399.51 329.3 408.56 333.53 Z"/>
<path d="M 355.79 293.82 351.45 295.12 332.83 287.93 330.36 290.76 322.88 289.13 314.65 289.54 312.6 286.58 303.97 286.79 292.76 292.24 284.84 288.39 280.46 279.57 276.04 279.52 268.56 274.29 257.81 275.12 256.38 267.69 246.84 271.64 243.75 275.12 234.66 271.04 230.46 271.06 227.12 270.53 219.38 261.6 220.35 259.05 215.75 254.62 217.96 248.73 223.98 244.38 227.16 246.65 233.27 242.49 242.78 239.13 241.6 236.58 252.68 227.05 254.78 229.68 265.33 230.72 269.78 237.76 274.42 238.93 274.53 246.6 279.2 247.64 287.1 246.08 302.05 250.08 311.49 249.42 318.06 252.23 327.46 249.01 324.65 253.68 312.11 256.05 309.5 259.21 300.96 261.12 282.54 259.57 279.53 264.67 286.19 265.41 294.99 263.59 303.44 268.89 318.94 269.46 322.68 271.83 330.55 271.96 332.19 277.96 336.86 283.19 343.23 280.88 353.95 281.63 356.92 285.46 352.98 288.62 355.79 293.82 Z"/>
<path d="M 391.31 335.62 392.37 335.2 394.14 339.76 399.05 342.44 397.46 347.28 392.48 346.98 387.22 341.73 391.31 335.62 Z"/>
<path d="M 105.19 297.52 109.41 303.76 110.74 316.02 117.49 316.83 127.7 328.3 125.01 333.65 119.68 333.68 110.14 328.86 105.23 331.31 100.39 330.19 96.85 325.37 88.78 325.85 85.57 321.6 86.19 317.06 94.09 308.76 97.98 312.34 103.04 309.21 103.33 297.97 105.19 297.52 Z"/>
<path d="M 315.94 100.36 311.84 104.87 301.18 107.48 293.91 107.96 289.46 102.09 277.94 93.81 284.11 90.02 291.14 81.81 296.47 85.73 302.75 83.47 317.73 84.24 324.72 78.81 324.41 73.96 332.57 71.75 338.87 71.79 345.88 68.12 349.53 73.1 353.82 73.68 358.02 81.38 369.1 82.58 377.35 87.93 391.84 88.82 392.99 91.22 387.73 97.71 394.58 102.81 386.22 102.45 382.04 105.67 374.57 104.98 361.43 106.56 358.18 111.55 353.16 111.02 347.56 113.69 347.45 110.4 337.81 106.36 339.09 101.64 327.61 99.58 315.94 100.36 Z"/>
<path d="M 389.98 334.29 391.31 335.62 387.22 341.73 386.89 342.08 376.62 340.15 378.66 338.36 389.98 334.29 Z"/>
<path d="M 249.21 134.41 241.25 127.71 241.87 122.3 235.37 121.36 225.64 116.83 221.63 106.5 223.56 98.27 230.06 96.49 243.95 95.24 252.57 95.75 262.1 100.8 266.97 96.57 274.16 96.42 277.94 93.81 289.46 102.09 293.91 107.96 294.09 114.3 287.18 109.46 279.82 109.82 272.9 112.19 271.44 118 259.89 128.24 252.82 130.77 249.21 134.41 Z"/>
<path d="M 315.27 194.73 317.09 197.57 332.48 203.98 341.52 212.78 356.52 232.48 354.64 235.25 336.15 239.59 345.09 234.05 337.48 222.8 327.1 220.63 319.25 217.16 318.77 221.97 310.43 223.51 306.63 226.01 310.98 235.03 322.19 239.25 327.46 249.01 318.06 252.23 311.49 249.42 302.05 250.08 287.1 246.08 279.2 247.64 274.53 246.6 274.42 238.93 280.33 236.58 279.29 228.93 290.99 222.84 291.61 218.21 286.79 214.58 297.4 211.66 296.74 208.98 309.96 197.64 315.27 194.73 Z"/>
<path d="M 506.03 198.81 509.63 202.28 503.79 206.28 503.68 200.7 506.03 198.81 Z"/>
<path d="M 385.56 308.44 388.54 309.69 383.52 315.25 383.5 320.55 382.66 324.14 374.26 327.43 372.24 326.87 366.91 321.44 359.95 320.35 356.28 316.47 352.32 319 352.07 323.79 341.48 324.96 330.91 323.66 327.06 320.09 306.2 318.54 305.17 314.49 296.5 310.77 296.05 306.84 289.48 307.25 288.69 300.78 283.69 298.68 276.97 287.47 284.84 288.39 292.76 292.24 303.97 286.79 312.6 286.58 314.65 289.54 322.88 289.13 330.36 290.76 332.83 287.93 351.45 295.12 355.79 293.82 355.75 295.17 367.33 299.2 365.85 302.74 373.7 307.27 385.56 308.44 Z"/>
<path d="M 274.42 238.93 269.78 237.76 265.33 230.72 254.78 229.68 252.68 227.05 248.33 222.59 252.35 217.78 252.15 208.27 245.92 201.61 250.23 196.7 242.89 192.88 237.47 192.39 233.22 185.97 227.36 188.23 223.89 181.46 229.64 175.62 223.56 174.4 223.47 168.11 219.55 165.37 226.32 161.91 238.51 150.52 243.08 144.6 249.48 143.77 250.8 151.82 260.6 144.37 265.13 148.61 263.06 153.45 265.73 156.4 275.26 158.93 279.78 164.13 288.14 161.2 294.55 161.65 296.72 170.63 308.93 177.74 311.23 186.83 315.27 194.73 309.96 197.64 296.74 208.98 297.4 211.66 286.79 214.58 291.61 218.21 290.99 222.84 279.29 228.93 280.33 236.58 274.42 238.93 Z"/>
<path d="M 392.37 335.2 391.31 335.62 389.98 334.29 387.06 321.95 383.5 320.55 383.52 315.25 388.54 309.69 395.05 309.72 410.79 314 407.43 319.41 407.1 325.54 410.11 328.89 408.56 333.53 399.51 329.3 392.37 335.2 Z"/>
<path d="M 341.02 343.85 334.98 340.25 335.82 333.35 343.34 330.24 341.48 324.96 352.07 323.79 352.32 319 356.28 316.47 359.95 320.35 366.91 321.44 372.24 326.87 374.26 327.43 382.66 324.14 383.5 320.55 387.06 321.95 389.98 334.29 378.66 338.36 373.33 335.71 364.41 338.7 361.3 341.5 346.68 341.42 341.02 343.85 Z"/>
<path d="M 259.43 418.51 252.99 421.4 245.01 414.26 237.89 410.16 233.07 404.5 235.96 400.14 232.76 395.61 235.99 392.6 228.86 389.13 226.43 385.43 218.27 386.07 220 379.5 218.23 372.08 219.27 367.31 226.72 360.67 228.22 363.62 241.32 366.53 246.78 362.04 252.06 364.03 257.57 359.32 265.71 361.69 270.84 361.55 282.65 380.85 281.81 386.61 291.03 389.1 296.72 387.14 299.26 382.46 301.65 393.28 307.73 399.78 312.73 407.5 316.44 419.96 320.2 419.23 323.1 426.29 313.41 431.29 308.33 430.36 297.96 422.9 291.9 415.23 287.85 402.64 283.14 403.45 280 400.3 270.29 400.49 272.15 409.59 265.58 410.11 259.76 404.5 254.76 405.11 255.18 410.34 259.43 418.51 Z"/>
<path d="M 444.98 579.38 463.3 577.92 470 576.42 475.15 573.26 485.06 573.26 490.17 574.92 498.71 575.2 495.06 579.76 498.13 584.83 495.79 595.1 488.11 594.85 486.7 600.48 481.32 603 467.26 601.95 463.32 598.66 455.71 597.32 450.43 593.67 442.24 594.8 445.6 585.44 444.98 579.38 Z"/>
<path d="M 115.19 223.23 111.82 210.95 108.49 205.82 108.82 201.38 98.53 198.45 97.65 192.18 100.15 188.84 95.92 183.09 96.79 180.59 89.2 177.55 89.93 173 83.52 165.98 80.88 160.49 88.23 158.55 93.56 152.12 105.54 152.74 114.85 149.17 117.91 133.42 123.52 126.67 132.11 128.63 141.81 142.67 140.97 146.29 138.01 147.76 142.48 154.68 148.78 154.32 148.78 164.4 150.11 170.24 163.62 170.02 167.54 172.61 162.78 178.61 164.15 187.35 158.25 185.76 154.04 189.66 159.2 195.04 160.3 204.08 154.97 202.45 147.74 202.82 142.35 213.57 125.49 218.31 119.79 215.79 115.19 223.23 Z"/>
<path d="M 416.41 130.95 416.34 124.4 432.4 127.35 436.96 129.75 441.11 136.15 449.12 140.94 451.42 145.14 442.49 147.59 440.43 143.3 430.19 133.52 416.41 130.95 Z"/>
<path d="M 80.86 220.75 78.23 214.62 73.14 213.01 75.84 203.17 66.49 201.2 68.72 192.32 78.61 184.85 81.77 176.01 89.2 177.55 96.79 180.59 95.92 183.09 100.15 188.84 97.65 192.18 98.53 198.45 108.82 201.38 108.49 205.82 111.82 210.95 115.19 223.23 110.92 219.05 97.25 224.06 84.27 217.29 80.86 220.75 Z"/>
<path d="M 69.12 232.91 64.32 228.83 66.88 227.4 69.12 232.91 Z"/>
<path d="M 661.95 357.4 672.45 357.61 677.52 361.13 688.99 360.72 690.32 366.78 679.66 368.84 675.02 373.18 667.63 372.64 660.73 366.6 650.64 369.68 647.37 364.59 651.09 361.36 661.95 357.4 Z"/>
<path d="M 559.9 114.03 568.95 117.84 568.02 121.52 559.9 123.92 551.25 120.58 547.41 116.37 554.86 113.77 559.9 114.03 Z"/>
<path d="M 698.28 466.58 702.77 464.18 704.83 468.9 700.52 469.95 698.28 466.58 Z"/>
<path d="M 601.35 438.06 591.81 442.35 585.07 449.41 577.51 451.39 576.69 447.79 594.53 439.28 601.35 438.06 Z M 558.15 426.97 555.59 433.48 544.82 436.86 540.44 432.12 538.14 425.16 538.82 420.84 553.89 411.91 558.68 416.58 559.7 421.96 558.15 426.97 Z" fill-rule="evenodd"/>
<path d="M 373.62 341.98 374.37 346.35 365.85 350.19 361.23 349.2 364.5 342.9 372.13 339.69 373.62 341.98 Z M 386.89 342.08 385.87 345.05 374.99 342.45 376.62 340.15 386.89 342.08 Z" fill-rule="evenodd"/>
<path d="M 343.07 374.42 347.27 375.19 353.58 379.78 357.25 376.49 352.8 373.44 357.03 370.5 362.18 373.36 358.78 378.37 368.84 382.91 371.12 389.77 364.02 390.4 365.5 385.89 358.58 386.56 340.4 380.29 343.07 374.42 Z M 375.85 360.67 371.82 367.08 366.6 365.33 365.81 359.78 375.85 360.67 Z" fill-rule="evenodd"/>
<path d="M 622.67 368.44 627.84 370 624.46 374.22 615.55 379.68 609.2 380.13 603.12 383.55 595.8 384.08 595.71 380.36 604.04 372.72 616.03 373.44 622.67 368.44 Z"/>
<path d="M 386.89 342.08 387.22 341.73 392.48 346.98 397.46 347.28 395 350.81 394.98 350.85 389.8 352.81 390.16 348.46 385.87 345.05 386.89 342.08 Z"/>
<path d="M 123.63 244.53 121.2 247.95 111.78 240.28 107.89 239.13 101.96 232.25 96.37 229.7 95.83 225.09 85.55 223.46 80.86 220.75 84.27 217.29 97.25 224.06 110.92 219.05 115.19 223.23 119.79 215.79 125.49 218.31 142.35 213.57 138.67 223.1 130.18 226.94 134.16 231.91 129.08 237.72 122.2 240.88 123.63 244.53 Z"/>
<path d="M 685.74 425.63 690.85 434.47 681.56 436.2 680.3 431.18 685.74 425.63 Z"/>
<path d="M 562.71 80.77 555.46 81.15 540.44 76.56 537.25 73.79 529.54 74.91 518.15 72.86 518.45 68.3 520.69 64.64 513.19 60.63 510.58 54.34 516.75 49.68 526 45.14 531.28 47.02 554.28 43.1 565.3 40.47 572.09 40.38 581.35 37.5 588.25 40.78 586.51 50.13 588.12 53.48 583.87 62.87 578.94 67.61 563.11 71.03 561.23 74.8 562.71 80.77 Z"/>
<path d="M 345.88 68.12 340.29 57.06 328.61 53.81 323.28 50.06 313.59 49.3 313.44 37.41 324.05 37.47 335.11 39.4 344.53 38 345.31 34.34 351.39 31.76 359.55 32.5 371.38 31.55 381 34.16 381.05 38.57 388.32 39.54 387.08 44.04 390.25 51.1 408.74 60.51 416.79 59.84 418.93 63.75 425.35 67.93 424.26 75.65 417.83 78.39 413.34 83.67 402.37 88.41 392.99 91.22 391.84 88.82 377.35 87.93 369.1 82.58 358.02 81.38 353.82 73.68 349.53 73.1 345.88 68.12 Z"/>
<path d="M 479.02 88.05 484.26 93.77 486.1 102.28 474.73 106.36 461.44 98.65 466.17 90.05 472.7 87.06 479.02 88.05 Z"/>
<path d="M 385.56 308.44 373.7 307.27 365.85 302.74 367.33 299.2 355.75 295.17 362.14 294.18 371.62 297.03 375.5 294.55 381.78 296.95 381.64 291.53 378.86 288.8 371.8 288.04 369.61 282.81 357.98 275.21 354.9 271.21 339.34 262.8 330.27 262.45 329.07 260 320.51 263.87 312.68 260.92 333.56 254.19 339.07 248.12 343.87 248.96 351.76 246.01 359.28 248.89 364.26 253.66 365.96 262.16 372.53 267.49 382.28 272.28 388.59 271.11 393.74 276.38 408.12 279.98 407.61 285.64 411.48 286.51 409.58 294.35 410.86 305.13 390.45 303.1 384.25 304.09 385.56 308.44 Z"/>
<path d="M 558.2 611.69 533.41 611.95 526.9 614.98 519.38 615.08 501.69 617.67 489.9 616.61 482.65 617.14 484.99 609.49 481.32 603 486.7 600.48 488.11 594.85 495.79 595.1 498.13 584.83 495.06 579.76 498.71 575.2 502.82 573.21 509.21 575.09 509.92 580.72 522.19 580.55 525.66 581.97 538.32 581.67 544.4 585.29 551.7 584.81 550.48 590.92 544.15 593.55 546.03 601.24 552.78 603.66 558.2 611.69 Z"/>
<path d="M 270.84 361.55 265.71 361.69 257.57 359.32 254.14 355.04 257.42 347.74 265.69 342.75 269.03 334.97 269.12 326.75 278.47 327.1 298.35 335.64 307.73 343.54 317.26 345.01 321.42 341.04 312.44 335.43 319.67 332.18 326.13 334.13 335.82 333.35 334.98 340.25 341.02 343.85 334.89 347.16 326.02 346.78 323.94 351.09 334.4 352.79 340.37 358.53 336 362.91 320.85 365.17 318.1 361.81 305.01 363.96 298.49 360.66 294.28 362.47 282.01 360.62 279.2 355.24 270.84 361.55 Z"/>
<path d="M 558.2 611.69 552.78 603.66 546.03 601.24 544.15 593.55 550.48 590.92 551.7 584.81 564.72 581.05 574.63 581.8 570.05 587.86 571.22 599.68 577.24 601.6 586.13 595.96 595.77 593.9 598.03 591.61 611.92 592.95 620.52 587.93 624.59 595.73 617.93 608.05 609.82 611.35 594.6 608.58 578.94 611.74 568.81 610.72 558.2 611.69 Z"/>
<path d="M 616.83 215.71 629.17 216.45 634.43 220.86 631.23 225.54 644.78 235.53 651.35 249.33 645.65 248.99 640.69 240.18 636.6 242.06 645.42 250.45 635.85 253.55 625.63 251.82 621.01 249.33 609.84 248.17 605.81 241.95 622.8 234.7 618.86 231.53 610.95 233.22 603.27 241.75 592.43 240.07 582.44 233.77 583.74 227.1 591.95 224.73 603.6 223.31 612.1 220.93 611.92 216.91 616.83 215.71 Z"/>
<path d="M 294.55 161.65 288.14 161.2 279.78 164.13 275.26 158.93 265.73 156.4 263.06 153.45 265.13 148.61 260.6 144.37 250.8 151.82 249.48 143.77 243.08 144.6 249.21 134.41 252.82 130.77 259.89 128.24 271.44 118 272.9 112.19 279.82 109.82 287.18 109.46 294.09 114.3 288.4 117.97 288.78 122.26 293.27 126.26 285.37 136.96 281.39 145.21 284.84 157.19 294.55 161.65 Z"/>
<path d="M 147.17 143.82 140.97 146.29 141.81 142.67 132.11 128.63 123.52 126.67 123.81 120.27 131.91 115.05 138.96 115.98 147.3 105.16 154.84 103.88 161.37 100.18 164.84 93.43 174.72 97.86 176.32 104.39 185.89 111.01 187.71 114.12 184.37 118.15 182.64 124.6 174.24 127.17 150.46 129.85 148.14 134.84 149.29 141.26 147.17 143.82 Z"/>
<path d="M 252.68 227.05 241.6 236.58 242.78 239.13 233.27 242.49 227.16 246.65 223.98 244.38 224.35 241.25 216.5 235.63 210.75 239.61 207.28 238.75 207.34 233.22 203.25 227.69 188.92 228.45 178.84 234.6 175.56 234.14 173.82 229.52 179.83 224.43 175.5 217.08 179.79 212.96 188.19 216.37 195.65 209.97 213.01 209.03 216.55 205.13 225.37 203.76 230.79 200.85 234.75 203.19 245.92 201.61 252.15 208.27 252.35 217.78 248.33 222.59 252.68 227.05 Z"/>
<path d="M 545.44 156.05 544.8 161.66 539.27 167.74 533.96 177.84 526.33 168.02 521.33 177.22 517.26 172.26 511.02 171.8 512.82 165.99 511.38 159.75 518.76 157.88 527.15 159 534.67 163.28 545.44 156.05 Z"/>
<path d="M 543.62 479.02 548.6 484.85 548.53 488.44 542.52 488.58 543.62 479.02 Z M 539.89 454.68 540.93 459.98 536.86 461.86 529.76 455.18 528.45 451.21 532.74 449.51 539.89 454.68 Z" fill-rule="evenodd"/>
<path d="M 364.02 390.4 349.02 391.89 345.93 396.93 340.77 398.94 339.69 402.87 330.25 394.07 334.93 387.5 324.78 386.48 322.31 382.83 314.56 380.95 307.49 381.06 304.9 376.52 300.99 376.9 299.26 382.46 296.72 387.14 291.03 389.1 281.81 386.61 282.65 380.85 270.84 361.55 279.2 355.24 282.01 360.62 294.28 362.47 298.49 360.66 305.01 363.96 318.1 361.81 320.85 365.17 336 362.91 340.11 364.13 338.67 372.46 343.07 374.42 340.4 380.29 358.58 386.56 365.5 385.89 364.02 390.4 Z"/>
<path d="M 325.58 127.4 331 120.3 335 125.47 340.73 120.72 339.03 116.12 347.56 113.69 353.16 111.02 358.18 111.55 361.43 106.56 374.57 104.98 382.04 105.67 386.22 102.45 394.58 102.81 400.2 108.62 399.76 116.4 403.72 122.49 408.32 124.52 416.34 124.4 416.41 130.95 409.24 127.08 403.96 126.49 395.8 128.76 391.68 127.76 387.97 133.55 395.93 141.24 413.07 146.97 417.56 157.99 409.49 164.07 406.17 159.66 399.29 157.22 394.85 147.89 384.43 138.77 372.51 137.22 367.91 134.97 359.62 134.23 355.33 138.26 357.6 145.47 364.24 148.74 366.65 153.17 373.77 157.05 384.19 160.36 387.95 166.39 377.49 165.12 363.57 161.35 358.31 157.47 351.94 149.68 353.58 146.42 352.38 138.37 336.44 133.62 327.5 130.03 325.58 127.4 Z"/>
<path d="M 321.53 488.24 322.86 491.61 333.98 498.31 328.76 502.31 329.23 508.25 320.09 507.92 315.76 504.17 317.29 495.07 314.83 492.3 316.93 487.78 321.53 488.24 Z"/>
<path d="M 638.15 467.72 629.04 468.82 627.31 471.9 620.59 470.55 622.93 466.79 627.91 468.77 638.15 467.72 Z M 682.36 576.26 675.68 580.63 672.74 579.19 678.75 573.41 682.36 576.26 Z M 701.49 570.17 699.83 573.99 694.28 571.73 696.51 568.57 695.5 561.69 691.07 557.73 697 552.97 700.69 545.89 700.01 539.54 705.8 538.35 702.99 550.2 699.61 556.38 704.43 560.74 707 566.02 701.49 570.17 Z M 712.75 481.61 718.96 477.87 725.42 485.98 721.31 487.1 716.93 482.48 712.75 481.61 Z M 762.11 463.37 767.71 467.21 763.99 470.71 757.8 468.52 762.11 463.37 Z" fill-rule="evenodd"/>
<path d="M 394.03 240.92 389.58 242.74 384.1 240.74 378.3 231.15 389.76 235.97 394.03 240.92 Z M 366.6 236.48 360.74 235.86 367.18 230.13 370.74 234.46 366.6 236.48 Z" fill-rule="evenodd"/>
<path d="M 215.86 97.18 212.59 106.33 205.47 108.22 195.65 108.47 187.71 114.12 185.89 111.01 176.32 104.39 174.72 97.86 164.84 93.43 161.37 100.18 154.84 103.88 147.3 105.16 148.69 97.28 141.75 89.02 141.73 81.08 158.87 80.85 175.34 79.24 180.12 75.92 191.82 76.53 196.84 79.52 206.79 72.95 214.29 74.32 215.06 80.39 207.04 82.02 209.49 88.57 215.84 91.5 215.86 97.18 Z"/>
<path d="M 259.43 418.51 255.18 410.34 254.76 405.11 259.76 404.5 265.58 410.11 272.15 409.59 270.29 400.49 280 400.3 283.14 403.45 287.85 402.64 291.9 415.23 297.96 422.9 308.33 430.36 313.41 431.29 323.1 426.29 328.37 443.47 331.73 446.85 332.83 452.03 326.86 456.82 327.57 464.39 337.63 472.19 336.92 475.76 342.1 481.13 333.32 481.82 331.11 476.6 313.7 465.72 313.92 462.93 308.42 456.39 305.05 448.79 290.86 447.56 285.66 450.32 277.32 466.35 277.87 472.92 280.51 478.46 276.13 480.88 268.94 478.33 266.04 474.02 268.89 471.55 267.3 460.38 264.27 452.48 267.72 452.02 270.82 444.41 266.97 439.46 265.98 428.41 259.43 418.51 Z"/>
<path d="M 402.37 88.41 413.34 83.67 417.83 78.39 424.26 75.65 425.35 67.93 431.67 69.19 442.46 62.45 444.81 63.31 459.56 55.46 459.07 49.86 466.11 50.67 477.19 49.55 477.74 56.56 484.95 60.28 481.72 66.88 488.47 81.35 480.17 81.91 471.94 79.95 465.02 72.86 451.4 74.65 446.25 77.48 441.45 85.79 426.32 93.41 420.9 94.42 412.19 92.64 402.37 88.41 Z"/>
<path d="M 152.36 244.58 147.92 248.61 143.05 248.64 135.27 243.41 123.63 244.53 122.2 240.88 129.08 237.72 134.16 231.91 130.18 226.94 138.67 223.1 142.35 213.57 147.74 202.82 154.97 202.45 160.3 204.08 163.44 210.72 169.97 216.96 175.5 217.08 179.83 224.43 173.82 229.52 175.56 234.14 167.18 238.37 159.82 237.45 153.65 238.65 152.36 244.58 Z"/>
<path d="M 444.98 579.38 445.6 585.44 442.24 594.8 433.26 592.88 417.87 593.46 414.18 590.13 409.62 591.25 399.42 588.58 386.49 590.54 377.53 589.47 372.09 584.21 376.09 573.2 376.45 563.3 388.23 565.81 390.71 563.58 389.69 551.65 395.16 551.24 396.24 562.12 402.37 563.9 415.7 564.6 422.8 561.2 427.09 556.51 433.11 560.33 431.98 565.69 437.71 568.6 438.88 576.64 444.98 579.38 Z"/>
<path d="M 488.47 81.35 481.72 66.88 484.95 60.28 477.74 56.56 477.19 49.55 466.11 50.67 459.07 49.86 461.28 43.54 468.05 45.58 469.6 40.24 477.5 39.13 485.68 35.55 497.98 31.71 524.93 42.66 526 45.14 516.75 49.68 510.58 54.34 513.19 60.63 520.69 64.64 518.45 68.3 510.29 68.74 505.14 74.25 493.6 77.25 488.47 81.35 Z"/>
<path d="M 425.35 67.93 418.93 63.75 416.79 59.84 408.74 60.51 390.25 51.1 387.08 44.04 388.32 39.54 381.05 38.57 381 34.16 383.81 31.6 394.49 32.01 397.3 28.91 405.51 27.32 412.19 28.63 420.52 26.54 420.57 20.83 423.49 18.49 431.76 21.36 437.07 16.9 442.44 21.33 456.84 20.59 464.45 17.72 466.53 24.9 470.04 29.41 480.66 30.31 485.68 35.55 477.5 39.13 469.6 40.24 468.05 45.58 461.28 43.54 459.07 49.86 459.56 55.46 444.81 63.31 442.46 62.45 431.67 69.19 425.35 67.93 Z"/>
<path d="M 562.71 80.77 561.23 74.8 563.11 71.03 578.94 67.61 583.87 62.87 588.12 53.48 586.51 50.13 588.25 40.78 597.41 37.34 608.25 35.91 611.59 29.95 610.66 25.42 612.85 19.93 609.62 13.82 604.69 11.45 602.05 4.54 608.62 1.38 616.47 1 621.05 4.52 627.18 3.9 640.32 8.14 643.41 12.17 649.38 14.03 649.6 20.8 653.21 35.08 649.83 38.62 643.04 37.26 632.95 44.66 625.5 45.16 624.68 52.5 627.86 65.5 627.47 72.25 622.27 75.8 615.48 77.5 614.44 82.14 607.58 86.2 606.28 90.43 599.49 92.05 595 83.9 589.14 81.94 568.73 81.64 562.71 80.77 Z"/>
<path d="M 797.25 481.08 799 487.1 793.34 495.35 789.03 504.17 783.23 509.54 785.27 512.4 772.53 517.72 764.39 527.8 756.27 531.34 751.43 526.67 753.35 523.06 753.99 512.86 750.19 511.61 749.33 506.92 754.9 504.78 757.4 499.12 770.34 490.59 797.25 481.08 Z"/>
</g>
</svg>