<?xml version="1.0"?>
<svg xmlns="http://www.w3.org/2000/svg" version="1.2" baseProfile="tiny" width="800" height="629" viewBox="0 0 800 629" stroke-linecap="round" stroke-linejoin="round">
<g id="new_map_">
<path d="M 226.72 360.67 224.95 355.31 218.34 348 212.81 354.14 206.62 359.62 202.92 354.45 196.62 351.36 190.69 350.45 185.58 344.84 186.09 339.52 178.15 334.74 175.32 330.31 177.02 327.1 176.47 324.35 179.1 322.36 184.21 321.03 191.82 324.99 199.32 326.28 207.15 321.03 211.33 313.85 214.49 311 219.93 309 230.28 309.72 236.41 311.78 237 313.67 242.33 316.12 244.74 315.86 249.01 320.68 253.94 322.84 264.23 323.48 269.12 326.75 269.03 334.97 265.69 342.75 262.53 344.2 260.76 347.1 257.42 347.74 256.22 352.31 254.14 355.04 257.57 359.32 252.06 364.03 246.78 362.04 241.32 366.53 237.53 366.48 232.54 363.98 228.22 363.62 226.72 360.67 Z"/>
<path d="M 264.27 452.48 261.33 448.66 260.73 445.58 255.2 438.57 250.16 439.19 246.38 436.87 249.06 429.43 247.53 428.07 239.3 428.17 232.85 429.52 227.98 432 228.91 436.3 227.32 439.54 228.36 446.47 230.32 447.69 223.76 454.5 219.2 449.93 217.12 446.5 212.25 446.9 206.22 443.97 204.62 437.75 207.26 433.98 203.39 431.05 201.35 427.41 195.09 421.52 194.45 414.49 195.98 412.22 205.89 410 208.63 407.28 207.21 403.07 225.06 402.69 226.85 398.58 232.76 395.61 235.96 400.14 233.07 404.5 238.82 407.92 237.89 410.16 245.01 414.26 252.99 421.4 259.43 418.51 261.77 419.77 260.03 424.28 262.92 424.55 265.98 428.41 265.89 433.47 267.63 436.84 266.97 439.46 270.82 444.41 267.72 452.02 264.27 452.48 Z"/>
<path d="M 284.84 288.39 276.97 287.47 283.69 298.68 288.69 300.78 289.48 307.25 286.59 313.34 281.7 310.81 282.16 308.5 274.73 300.39 271.48 300.26 268.14 304.5 269.96 306.49 266.99 308.96 259.98 308.91 254.72 306.95 250.94 309.46 238.42 303.91 234.13 303.99 229.64 302.64 224.57 306.13 221.52 305.85 223.84 302.96 223.56 298.13 228.51 296.65 232.54 294.27 232.36 290.27 233.86 286.97 229.95 284.69 231.14 275.93 233.57 273.92 230.46 271.06 234.66 271.04 243.75 275.12 246.84 271.64 251.2 270.6 256.38 267.69 256.62 273.12 257.81 275.12 268.56 274.29 276.04 279.52 280.46 279.57 284.09 284.64 284.84 288.39 Z"/>
<path d="M 249.21 134.41 247.11 139.86 241.71 142.93 243.08 144.6 239.75 146.01 238.51 150.52 230.7 157.89 228.13 158.11 226.32 161.91 219.55 165.37 212.23 164.07 213.94 160.58 211.68 156.41 211.92 153.24 206.86 153.06 204.36 150.67 204.18 146.42 200.33 144 194.54 147.26 190.09 145.22 188.5 141.16 179.48 139.02 169 140.93 167.96 143.59 155.22 146.8 150.57 146.34 147.17 143.82 149.29 141.26 148.14 134.84 150.46 129.85 155.88 128.47 159.97 129.44 166.98 127.96 171.8 123.53 174.24 127.17 182.64 124.6 184.37 118.15 187.71 114.12 189.65 111.61 195.65 108.47 202.9 107.25 205.47 108.22 212.59 106.33 214.67 98 215.86 97.18 219 96.42 223.56 98.27 221.63 106.5 224.24 108.44 223.18 112.55 225.64 116.83 230.43 117.72 235.37 121.36 241.87 122.3 241.25 127.71 245.5 130.2 245.87 133.9 249.21 134.41 Z"/>
<path d="M 114.94 297.61 117.95 301.41 115.54 305.24 121.16 305.41 122.44 306.72 120.05 312.98 117.13 311.22 109.99 298.2 114.94 297.61 Z"/>
<path d="M 118.79 347.28 123.1 351.84 126.07 351.84 133.85 354.55 136.26 358.37 143.3 361.96 142.54 363.95 136.31 361.5 132.08 361.68 129.08 364.89 128.59 367.83 120.67 362.09 116.34 360.05 116.34 358.24 111.49 355.04 110.52 349.23 114.9 345.75 118.79 347.28 Z"/>
<path d="M 456.71 391.43 455.51 397.92 449.39 402.58 447.55 401.55 450.07 397.08 450.51 393.77 448.7 391.32 450.78 388.41 456.71 391.43 Z M 494.44 396.75 492.27 391.68 494.46 389.2 494.46 385.41 498.77 386.31 500.63 394.13 494.44 396.75 Z M 449.72 369.02 452.19 370.75 450.82 375.09 447.7 378.5 441.58 382.66 439.5 374.25 441.87 370.61 445.69 368.13 449.72 369.02 Z M 502.29 359.77 504.21 361.28 501.82 365.46 498.82 367.47 494.57 360.76 486.7 356.13 483.51 350.47 480.08 350.96 476.92 346.47 478.16 342.45 484.15 339.8 489.17 343.05 490.96 347.51 499.04 347.79 501.12 348.64 499.37 353.86 502.2 355.37 502.29 359.77 Z M 507.57 432.33 506.93 429.75 511.07 426.08 511.64 431.97 507.57 432.33 Z M 523.98 417.75 529.05 421.42 529.69 424.84 527.52 428.71 522.61 431.54 515.54 429.85 514.01 427.54 515.36 424 518.68 422.79 518.19 420.38 523.98 417.75 Z M 541.43 385.52 547.03 388.7 537.08 393.67 532.3 392.59 536.13 384.72 541.43 385.52 Z M 506.69 368.46 508.97 371.03 514.32 370.81 516.55 372.42 522.1 371.91 526.55 374.47 527.15 377.03 523.94 381.79 518.85 382 514.81 380.26 513.35 377.69 504.5 372.61 502.16 369.53 506.69 368.46 Z" fill-rule="evenodd"/>
<path d="M 219.55 165.37 223.47 168.11 223.56 174.4 215.37 173.53 211.83 174.19 203.83 173.89 200.51 172.06 196.4 172.29 188.97 169.88 182.88 169.37 179.17 171.26 178.31 174.55 172.11 175.59 170.68 172.81 167.54 172.61 163.62 170.02 157.34 170.98 156.48 172.36 150.11 170.24 148.78 164.4 144.2 160.17 148.58 159.13 148.78 154.32 142.48 154.68 138.01 147.76 140.97 146.29 146.02 146.39 147.17 143.82 150.57 146.34 155.22 146.8 167.96 143.59 169 140.93 179.48 139.02 188.5 141.16 190.09 145.22 194.54 147.26 200.33 144 204.18 146.42 204.36 150.67 206.86 153.06 211.92 153.24 211.68 156.41 213.94 160.58 212.23 164.07 219.55 165.37 Z"/>
<path d="M 389.8 352.81 394.98 350.85 395 350.81 397.46 347.28 399.05 342.44 400.93 341.61 402.85 336.41 407.17 336.17 408.56 333.53 410.11 328.89 407.1 325.54 407.43 319.41 410.79 314 421.9 322.59 421.21 326.23 414.4 329.07 418.02 340.48 416.12 341.57 416.79 345.17 419.33 348.44 416.87 351.16 420.35 352.59 419.24 355.9 422.67 357.91 419.15 364.13 420.63 368.08 415.79 370.33 410.28 369.68 408.82 364.46 403.49 357.74 397.06 355.24 393.37 356.72 389.8 352.81 Z"/>
<path d="M 690.67 450.93 684.84 452.41 685.41 455.41 682.05 458.55 679.26 455.8 679.59 451.06 686.43 449.99 691.78 444.18 697.09 441.68 705.89 439.28 709.85 438.95 717.57 440.02 718.21 443.42 710.6 445.27 707.77 445.17 701.29 447.87 696.8 451.59 690.67 450.93 Z"/>
<path d="M 607.47 288.7 610.5 290.66 609.15 294.91 609.53 298.23 608.11 302.91 610.35 309.54 609.46 312.29 606.04 314.31 606.04 318.67 594.89 324.32 583.79 316.35 586.09 313.34 592.72 311.56 595.07 307.38 595.07 304.44 591.64 301.39 591.73 299.05 588.65 296.55 583.41 294.22 581.09 290.4 582.48 287.27 585.71 285.64 595.99 284.97 601.59 286.2 603.65 288.9 607.47 288.7 Z"/>
<path d="M 42.11 175.41 48.64 177.96 47.31 182.71 39.7 185.38 41.61 190.99 47.07 193.08 45.52 197.72 47.89 205.92 53.59 207.61 54.68 210.07 60.49 207.89 63.26 216.3 53.7 213.03 50.78 210.81 42.31 208.37 40.01 204.59 39.66 199.78 37.51 196.31 33.42 195.48 28.42 190.05 24.33 187.3 24.64 184.44 20.15 180.62 23.62 176.94 35.68 177.08 39.5 174.47 42.11 175.41 Z"/>
<path d="M 175.5 217.08 169.97 216.96 163.44 210.72 160.3 204.08 160.37 198.97 159.2 195.04 154.04 189.66 158.25 185.76 164.15 187.35 162.78 178.61 167.54 172.61 170.68 172.81 172.11 175.59 178.31 174.55 179.17 171.26 182.88 169.37 188.97 169.88 196.4 172.29 200.51 172.06 203.83 173.89 211.83 174.19 215.37 173.53 223.56 174.4 229.64 175.62 223.89 181.46 227.36 188.23 229.82 188.52 233.22 185.97 237.47 192.39 242.89 192.88 244.21 196.39 247.88 194.74 250.23 196.7 245.92 201.61 238.88 201.54 234.75 203.19 230.79 200.85 225.37 203.76 216.55 205.13 213.01 209.03 201.57 210.18 198.1 211.71 195.65 209.97 188.19 216.37 179.79 212.96 175.5 217.08 Z"/>
<path d="M 223.56 98.27 219 96.42 215.86 97.18 215.84 91.5 214.29 89.4 209.49 88.57 209.58 85.59 207.04 82.02 215.06 80.39 217.76 77.83 214.29 74.32 215.9 70.73 219.44 68.87 225.19 63.38 225.5 60.2 231.12 57.25 238.6 55 245.69 56.78 250.05 53.68 257.17 53.04 264.91 55.84 264.12 63.38 261.49 66.09 256.07 67.61 256.8 70.91 265.33 71.52 267.04 76.16 273.67 80.26 274.95 78.52 282.83 79.44 291.14 81.81 287.47 85.2 281.06 85.05 284.11 90.02 277.94 93.81 274.16 96.42 266.97 96.57 262.1 100.8 252.57 95.75 243.95 95.24 240.05 92.79 238.84 95.68 230.06 96.49 228.49 98.23 223.56 98.27 Z"/>
<path d="M 178.84 234.6 179.01 237.35 181.96 240.25 177.36 247.92 186.56 251.98 185.23 253.86 187.6 259.01 195.29 259.59 198.92 261.02 198.1 263.52 194.36 263.21 192.35 267.32 195 273.74 204.6 275.85 212.19 276.57 215.46 277.91 216.83 273.74 224.55 274.24 227.12 270.53 230.46 271.06 233.57 273.92 231.14 275.93 229.95 284.69 233.86 286.97 232.36 290.27 232.54 294.27 228.51 296.65 223.56 298.13 223.84 302.96 221.52 305.85 218.47 304.32 214 306.46 213.14 308.75 206.99 307.69 200.62 307.58 187.68 312.62 186.73 307.78 177.24 303.27 167.51 306.25 164.22 310.43 157.96 312.12 152.56 305.36 155.17 303.68 151.32 295.38 145.75 293.77 144.56 290.56 145.86 286.15 141.84 278.68 136.35 278.84 134.07 275.09 132.33 268.23 129.27 267.77 126.78 270.02 122.86 270.71 119.94 267.6 119.63 264.46 124.23 260.64 121 255.97 132.7 256.16 141.86 254.14 149.64 259.57 151.55 257.25 155.64 255.72 156.94 250.24 152.36 244.58 151.66 240.86 153.65 238.65 159.82 237.45 167.18 238.37 171.76 235.31 175.56 234.14 178.84 234.6 Z"/>
<path d="M 460.16 451.93 463.92 451.39 462.41 458.68 458.08 460.23 443.72 460.24 446.38 452.36 450.4 455.87 455.69 457.23 455.67 452.33 460.16 451.93 Z M 468.76 446.16 467.63 448.61 463.69 450.02 461.88 446.4 465.4 443.84 468.76 446.16 Z M 477.41 427.56 482.76 432.94 483.14 434.65 478 438.06 472.67 427.23 477.41 427.56 Z M 462.35 413.8 463.14 416.58 458.79 418.47 453.34 416.96 454.94 412.78 461.2 411.25 462.35 413.8 Z" fill-rule="evenodd"/>
<path d="M 232.76 395.61 226.85 398.58 225.06 402.69 207.21 403.07 204.74 396.63 195.47 385.51 188.81 381.57 178.84 374.4 171.98 373.28 173.24 368.67 171.05 362.62 166.01 358.93 155.73 355.64 152.92 353.51 154.13 346.52 156.32 345.05 163.11 345.75 171.76 337.62 175.32 330.31 178.15 334.74 186.09 339.52 185.58 344.84 190.69 350.45 196.62 351.36 202.92 354.45 206.62 359.62 212.81 354.14 218.34 348 224.95 355.31 226.72 360.67 221.9 364.13 219.27 367.31 218.23 372.08 219.77 374.19 220 379.5 218.27 386.07 226.43 385.43 228.86 389.13 235.99 392.6 232.76 395.61 Z"/>
<path d="M 223.98 244.38 221.1 247.48 217.96 248.73 215.75 254.62 220.35 259.05 219.38 261.6 224.2 265.86 227.12 270.53 224.55 274.24 216.83 273.74 215.46 277.91 212.19 276.57 204.6 275.85 195 273.74 192.35 267.32 194.36 263.21 198.1 263.52 198.92 261.02 195.29 259.59 187.6 259.01 185.23 253.86 186.56 251.98 177.36 247.92 181.96 240.25 179.01 237.35 178.84 234.6 182.88 232.61 182.95 230.77 188.92 228.45 192.11 229.96 194.3 228.17 199.29 227.13 203.25 227.69 204.6 232.61 207.34 233.22 207.28 238.75 210.75 239.61 216.5 235.63 218.8 238.14 224.35 241.25 223.98 244.38 Z"/>
<path d="M 644.61 373.05 644.72 376.95 639.85 380.08 639.76 377.21 642.86 376.31 644.61 373.05 Z"/>
<path d="M 561.67 285.79 560.5 289.99 556.07 290.17 555.06 284.28 559.55 283.85 561.67 285.79 Z"/>
<path d="M 437 340.94 439.17 338.18 442.26 338.83 440.94 342.24 437 340.94 Z M 408.12 279.98 420.63 278.42 427.98 280.01 426.32 283.6 426.83 286.6 434.17 290.71 436.25 292.77 433.29 295.3 432.36 300.32 432.91 304.39 435.32 306.07 435.47 309.21 439.3 315.18 438.88 318.62 440.56 321.24 446.2 322.7 447.09 324.99 451.86 324.65 457.28 326.67 468.89 325.72 467.96 330.11 468.6 337.02 463.36 343.28 459.25 343.71 456.46 338.83 453.88 338.22 449.87 342.5 447.2 341.5 443.19 337.19 443.97 333.73 437.73 330.93 432.91 326.97 434.77 323.58 432.62 320.43 427.58 318.54 430.32 315.27 425.39 310.87 420.97 309.16 419.93 304.81 415.53 303.53 410.86 305.13 409.58 294.35 411.48 286.51 407.61 285.64 408.12 279.98 Z M 468.12 255.72 467.5 260.08 473.89 262.95 476.85 266.45 476.54 269.31 470.51 269.15 466.19 266.17 466.28 263.54 455.2 259.8 457.5 256.58 456.88 251.61 459.09 250.9 468.12 255.72 Z" fill-rule="evenodd"/>
<path d="M 291.14 81.81 282.83 79.44 274.95 78.52 273.67 80.26 267.04 76.16 265.33 71.52 256.8 70.91 256.07 67.61 261.49 66.09 264.12 63.38 264.91 55.84 269.87 55.92 277.39 57.58 282.54 56.22 288.16 56.61 290.83 55.16 292.69 51.51 297.93 55.16 304.39 50.54 305.1 47.77 302.82 45.58 302.8 38.8 307.27 37.26 313.44 37.41 313.48 43.51 312.2 46.29 313.59 49.3 317.93 50.28 323.28 50.06 328.61 53.81 337.26 57.39 340.29 57.06 345.88 68.12 339.71 70.16 338.87 71.79 332.57 71.75 324.41 73.96 324.72 78.81 319.76 81.73 317.73 84.24 310.8 84.79 302.75 83.47 299.39 85.97 296.47 85.73 295.3 80.29 291.14 81.81 Z"/>
<path d="M 117.64 264.69 118.97 266.65 118.92 271.36 120.67 276.38 118.68 278.78 119.34 282.86 112.18 286.02 104.61 283.98 104.46 278.35 108.66 269.07 111.56 265.45 117.64 264.69 Z"/>
<path d="M 325.58 127.4 319.67 124.3 316.05 124.88 311.78 117.37 308.06 115.3 308.66 113.21 316.78 113.21 323.12 110.3 319.19 106.08 320.34 102.55 315.94 100.36 324.41 100.65 322.5 94.76 326.97 95.9 327.61 99.58 330.53 99.02 333.74 100.82 339.09 101.64 337.81 106.36 347.45 110.4 347.56 113.69 342.5 114.07 339.03 116.12 340.73 120.72 335 125.47 331 120.3 327.13 123.89 325.58 127.4 Z"/>
<path d="M 408.56 333.53 407.17 336.17 402.85 336.41 400.93 341.61 399.05 342.44 394.14 339.76 392.37 335.2 396.13 331.02 399.51 329.3 406.02 333.57 408.56 333.53 Z"/>
<path d="M 355.79 293.82 351.45 295.12 345.35 294.35 345.06 292.11 338.23 289.23 332.83 287.93 330.36 290.76 322.88 289.13 314.65 289.54 312.6 286.58 303.97 286.79 299.26 289.81 292.76 292.24 284.84 288.39 284.09 284.64 280.46 279.57 276.04 279.52 268.56 274.29 257.81 275.12 256.62 273.12 256.38 267.69 251.2 270.6 246.84 271.64 243.75 275.12 234.66 271.04 230.46 271.06 227.12 270.53 224.2 265.86 219.38 261.6 220.35 259.05 215.75 254.62 217.96 248.73 221.1 247.48 223.98 244.38 227.16 246.65 232.96 245.38 233.27 242.49 239.48 240.92 242.78 239.13 241.6 236.58 252.68 227.05 254.78 229.68 265.33 230.72 269.23 234.36 269.78 237.76 274.42 238.93 274.53 246.6 279.2 247.64 284.71 247.41 287.1 246.08 293.78 246.37 293.78 248 302.05 250.08 311.49 249.42 318.06 252.23 323.3 251.79 327.46 249.01 324.65 253.68 318.21 255.67 312.11 256.05 309.5 259.21 300.96 261.12 296.65 260.07 291.52 260.61 289.53 258.88 282.54 259.57 279.53 264.67 286.19 265.41 294.99 263.59 303.44 268.89 310.43 268.69 313.75 270.83 318.94 269.46 322.68 271.83 330.55 271.96 332.19 277.96 336.86 283.19 343.23 280.88 344.82 279.11 348.73 281.54 353.95 281.63 356.92 285.46 352.98 288.62 355.75 291.47 355.79 293.82 Z"/>
<path d="M 391.31 335.62 392.37 335.2 394.14 339.76 399.05 342.44 397.46 347.28 392.48 346.98 387.22 341.73 391.31 335.62 Z"/>
<path d="M 105.19 297.52 109.41 303.76 111.01 311 109.37 312.73 110.74 316.02 117.49 316.83 124.03 324.98 127.7 328.3 127.86 330.72 125.01 333.65 119.68 333.68 110.14 328.86 105.23 331.31 100.39 330.19 96.85 325.37 97.94 321.68 94.82 314.85 92.63 315.78 93.73 319.59 93.18 325.37 88.78 325.85 83.94 322.8 85.57 321.6 86.19 317.06 89.91 312.45 90.33 308.48 94.09 308.76 97.98 312.34 103.04 309.21 103.33 297.97 105.19 297.52 Z"/>
<path d="M 315.94 100.36 311.36 101.28 311.84 104.87 306.14 107.22 301.18 107.48 301.07 111.61 297.07 111.14 293.91 107.96 291.74 106.91 289.46 102.09 277.94 93.81 284.11 90.02 281.06 85.05 287.47 85.2 291.14 81.81 295.3 80.29 296.47 85.73 299.39 85.97 302.75 83.47 310.8 84.79 317.73 84.24 319.76 81.73 324.72 78.81 324.41 73.96 332.57 71.75 338.87 71.79 339.71 70.16 345.88 68.12 349.53 73.1 353.82 73.68 358.02 81.38 363.07 81.12 364.35 84 369.1 82.58 372.91 86.02 377.35 87.93 384.47 88.94 391.84 88.82 392.99 91.22 387.73 97.71 394.58 102.81 386.22 102.45 382.04 105.67 374.57 104.98 370.7 108.03 368.22 106.38 361.43 106.56 361.96 109.67 358.18 111.55 353.16 111.02 353.09 115.37 347.56 113.69 347.45 110.4 337.81 106.36 339.09 101.64 333.74 100.82 330.53 99.02 327.61 99.58 326.97 95.9 322.5 94.76 324.41 100.65 315.94 100.36 Z"/>
<path d="M 389.98 334.29 391.31 335.62 387.22 341.73 386.89 342.08 382.11 340.2 376.62 340.15 378.66 338.36 383.26 337.42 385.29 335.1 389.98 334.29 Z"/>
<path d="M 249.21 134.41 245.87 133.9 245.5 130.2 241.25 127.71 241.87 122.3 235.37 121.36 230.43 117.72 225.64 116.83 223.18 112.55 224.24 108.44 221.63 106.5 223.56 98.27 228.49 98.23 230.06 96.49 238.84 95.68 240.05 92.79 243.95 95.24 252.57 95.75 262.1 100.8 266.97 96.57 274.16 96.42 277.94 93.81 289.46 102.09 291.74 106.91 293.91 107.96 291.85 110.13 294.09 114.3 290.41 113.85 287.18 109.46 279.82 109.82 272.9 112.19 271.44 118 267.81 121.59 262.24 125.27 259.89 128.24 252.82 130.77 249.21 134.41 Z"/>
<path d="M 315.27 194.73 317.09 197.57 332.48 203.98 335.6 208.26 341.52 212.78 346.21 218.66 348.73 219.5 350.22 223.55 354.13 228.12 356.52 232.48 354.64 235.25 345.06 237.72 336.57 241.01 330.44 240.58 332.15 236.42 335.66 237.07 336.15 239.59 345.09 234.05 341.04 228.2 341.1 226.28 337.48 222.8 331.99 220.53 327.1 220.63 324.23 217.9 319.25 217.16 318.77 221.97 310.43 223.51 306.63 226.01 307.22 229.98 310.98 235.03 315.85 234.05 316.67 238.04 322.19 239.25 324.63 243.92 324.65 247.82 327.46 249.01 323.3 251.79 318.06 252.23 311.49 249.42 302.05 250.08 293.78 248 293.78 246.37 287.1 246.08 284.71 247.41 279.2 247.64 274.53 246.6 274.42 238.93 280.33 236.58 281.37 232.14 279.29 228.93 280.4 226.61 284.29 226.13 290.99 222.84 291.61 218.21 288.62 218.06 286.79 214.58 289.71 212.75 297.4 211.66 296.74 208.98 300.08 205.72 301.12 202.43 304.28 202.58 309.96 197.64 315.27 194.73 Z"/>
<path d="M 506.03 198.81 509.63 202.28 503.79 206.28 503.68 200.7 506.03 198.81 Z"/>
<path d="M 385.56 308.44 388.54 309.69 383.52 315.25 383.5 320.55 382.66 324.14 377.02 327.23 374.26 327.43 372.24 326.87 368 325.24 366.91 321.44 359.95 320.35 360.92 316.57 356.28 316.47 352.32 319 352.07 323.79 342.87 323.87 341.48 324.96 337.41 325.01 334.36 321.16 330.91 323.66 327.99 323.02 327.06 320.09 320.45 320.17 318.97 322.57 312.07 319 306.2 318.54 303.17 317.16 305.17 314.49 296.5 310.77 296.05 306.84 289.48 307.25 288.69 300.78 283.69 298.68 276.97 287.47 284.84 288.39 292.76 292.24 299.26 289.81 303.97 286.79 312.6 286.58 314.65 289.54 322.88 289.13 330.36 290.76 332.83 287.93 338.23 289.23 345.06 292.11 345.35 294.35 351.45 295.12 355.79 293.82 355.75 295.17 350.59 300.73 354.77 301.77 355.59 298.89 361.72 297.1 363.04 299.14 367.33 299.2 365.85 302.74 373.7 307.27 377.09 306.9 381.58 308.72 385.56 308.44 Z"/>
<path d="M 274.42 238.93 269.78 237.76 269.23 234.36 265.33 230.72 254.78 229.68 252.68 227.05 248.33 222.59 252.35 217.78 252.15 208.27 250.76 204.93 246.49 205.16 245.92 201.61 250.23 196.7 247.88 194.74 244.21 196.39 242.89 192.88 237.47 192.39 233.22 185.97 229.82 188.52 227.36 188.23 223.89 181.46 229.64 175.62 223.56 174.4 223.47 168.11 219.55 165.37 226.32 161.91 228.13 158.11 230.7 157.89 238.51 150.52 239.75 146.01 243.08 144.6 249.48 143.77 250.8 151.82 255.09 147.92 260.6 144.37 265.13 148.61 263.06 153.45 265.73 156.4 271.02 157.04 275.26 158.93 277.14 162.98 279.78 164.13 285.95 163.03 288.14 161.2 292.91 163.06 294.55 161.65 296.72 170.63 302.31 173.32 308.93 177.74 311.23 186.83 315.27 194.73 309.96 197.64 304.28 202.58 301.12 202.43 300.08 205.72 296.74 208.98 297.4 211.66 289.71 212.75 286.79 214.58 288.62 218.06 291.61 218.21 290.99 222.84 284.29 226.13 280.4 226.61 279.29 228.93 281.37 232.14 280.33 236.58 274.42 238.93 Z"/>
<path d="M 392.37 335.2 391.31 335.62 389.98 334.29 387.06 321.95 383.5 320.55 383.52 315.25 388.54 309.69 395.05 309.72 403.87 311.69 410.79 314 407.43 319.41 407.1 325.54 410.11 328.89 408.56 333.53 406.02 333.57 399.51 329.3 396.13 331.02 392.37 335.2 Z"/>
<path d="M 341.02 343.85 341.02 342.34 334.98 340.25 335.82 333.35 343.34 330.24 345.53 326.44 341.48 324.96 342.87 323.87 352.07 323.79 352.32 319 356.28 316.47 360.92 316.57 359.95 320.35 366.91 321.44 368 325.24 372.24 326.87 374.26 327.43 377.02 327.23 382.66 324.14 383.5 320.55 387.06 321.95 389.98 334.29 385.29 335.1 383.26 337.42 378.66 338.36 377.35 335.69 373.33 335.71 364.41 338.7 361.3 341.5 353.09 341.98 346.68 341.42 341.02 343.85 Z"/>
<path d="M 259.43 418.51 252.99 421.4 245.01 414.26 237.89 410.16 238.82 407.92 233.07 404.5 235.96 400.14 232.76 395.61 235.99 392.6 228.86 389.13 226.43 385.43 218.27 386.07 220 379.5 219.77 374.19 218.23 372.08 219.27 367.31 221.9 364.13 226.72 360.67 228.22 363.62 232.54 363.98 237.53 366.48 241.32 366.53 246.78 362.04 252.06 364.03 257.57 359.32 261.8 358.65 265.71 361.69 270.84 361.55 271.92 366.4 271.02 369.41 275.2 369.66 282.65 380.85 281.81 386.61 286.52 386.83 291.03 389.1 296.72 387.14 299.26 382.46 301.65 393.28 307.73 399.78 307.73 401.36 312.73 407.5 315.32 413.73 314.21 416.81 316.44 419.96 320.2 419.23 322.44 422.39 323.1 426.29 319.43 428.88 315.38 428.33 313.41 431.29 308.33 430.36 302.67 426.29 298.91 428.6 296.43 425.8 297.96 422.9 291.9 415.23 288.8 408.22 287.85 402.64 283.14 403.45 280 400.3 276.08 401.13 270.29 400.49 272.48 405.19 272.15 409.59 268.96 408.75 265.58 410.11 259.76 404.5 254.76 405.11 255.18 410.34 259.43 418.51 Z"/>
<path d="M 444.98 579.38 450.03 578.43 463.3 577.92 470 576.42 475.15 573.26 485.06 573.26 490.17 574.92 494.5 573.84 498.71 575.2 495.06 579.76 498.13 584.83 498.28 589.21 495.79 595.1 488.11 594.85 486.7 600.48 483.42 600.78 481.32 603 467.26 601.95 463.32 598.66 455.71 597.32 450.43 593.67 442.24 594.8 443.55 589.55 442.18 586.74 445.6 585.44 444.98 579.38 Z"/>
<path d="M 115.19 223.23 114.94 219.28 113.2 217.18 111.82 210.95 108.49 205.82 108.82 201.38 102.09 200.29 98.53 198.45 97.65 192.18 100.15 188.84 95.92 183.09 96.79 180.59 89.2 177.55 89.93 173 83.52 165.98 80.88 160.49 83.52 158.72 88.23 158.55 93.56 152.12 100.35 151.66 105.54 152.74 114.85 149.17 115.39 143.54 117.73 138.18 117.91 133.42 123.52 126.67 125.8 128.12 132.11 128.63 136.11 133.21 141.81 142.67 140.97 146.29 138.01 147.76 142.48 154.68 148.78 154.32 148.58 159.13 144.2 160.17 148.78 164.4 150.11 170.24 156.48 172.36 157.34 170.98 163.62 170.02 167.54 172.61 162.78 178.61 164.15 187.35 158.25 185.76 154.04 189.66 159.2 195.04 160.37 198.97 160.3 204.08 154.97 202.45 150.53 205.01 147.74 202.82 144.78 210.16 142.35 213.57 140.6 213.16 133.39 216.44 125.49 218.31 124.17 216.27 119.79 215.79 115.19 223.23 Z"/>
<path d="M 416.41 130.95 416.34 124.4 418.16 122.38 421.56 125.88 432.4 127.35 436.96 129.75 441.11 136.15 449.12 140.94 451.42 145.14 445.32 147.85 442.49 147.59 440.43 143.3 436.29 141.37 435.76 139.46 430.19 133.52 421.5 132.6 416.41 130.95 Z"/>
<path d="M 80.86 220.75 78.61 219.04 78.23 214.62 73.14 213.01 73.25 209.14 75.53 206.76 75.84 203.17 66.49 201.2 68.72 192.32 78.61 184.85 80.09 178.27 81.77 176.01 85.95 177.87 89.2 177.55 96.79 180.59 95.92 183.09 100.15 188.84 97.65 192.18 98.53 198.45 102.09 200.29 108.82 201.38 108.49 205.82 111.82 210.95 113.2 217.18 114.94 219.28 115.19 223.23 110.92 219.05 105.92 221.8 104.13 220.73 97.25 224.06 89.69 219.71 86.92 216.91 84.27 217.29 80.86 220.75 Z"/>
<path d="M 69.12 232.91 64.32 228.83 66.88 227.4 72.63 232.78 69.12 232.91 Z"/>
<path d="M 661.95 357.4 672.45 357.61 677.52 361.13 682.09 359.92 688.99 360.72 690.32 366.78 686.21 366.85 679.66 368.84 675.64 371.14 675.02 373.18 667.63 372.64 663.14 367.59 660.73 366.6 654.12 367.5 650.64 369.68 648.32 368.05 647.37 364.59 651.09 361.36 656.53 358.71 661.95 357.4 Z"/>
<path d="M 559.9 114.03 565.78 115.17 568.95 117.84 568.02 121.52 559.9 123.92 557.38 123.66 551.25 120.58 547.41 116.37 554.86 113.77 559.9 114.03 Z"/>
<path d="M 698.28 466.58 702.77 464.18 705.01 465.69 704.83 468.9 700.52 469.95 698.28 466.58 Z"/>
<path d="M 601.35 438.06 600.88 439.21 591.81 442.35 585.07 449.41 577.51 451.39 576.69 447.79 582.77 447.21 582.57 444.28 594.53 439.28 597.41 436.17 601.35 438.06 Z M 558.15 426.97 555.59 433.48 544.82 436.86 543.25 432.99 540.44 432.12 538.14 425.16 538.82 420.84 546.74 416.96 549.82 413.96 553.89 411.91 558.68 416.58 559.7 421.96 558.15 426.97 Z" fill-rule="evenodd"/>
<path d="M 373.62 341.98 374.37 346.35 365.85 350.19 361.23 349.2 364.5 342.9 372.13 339.69 373.62 341.98 Z M 386.89 342.08 385.87 345.05 381.78 345.09 374.99 342.45 376.62 340.15 382.11 340.2 386.89 342.08 Z" fill-rule="evenodd"/>
<path d="M 338.52 407.69 336.22 407.83 333.25 403.88 339.09 404.96 338.52 407.69 Z M 343.07 374.42 347.27 375.19 349.35 377.66 353.58 379.78 357.63 378.48 357.25 376.49 352.8 373.44 357.03 370.5 360.85 370.63 362.18 373.36 358.78 378.37 363.64 380.62 368.2 378.4 372.55 381.54 368.84 382.91 371.71 387.15 371.12 389.77 364.02 390.4 365.5 385.89 358.58 386.56 353.02 385.36 352.16 383.71 340.4 380.29 339.8 378.27 343.07 374.42 Z M 362.47 398.94 370.92 394.49 370.36 399.19 364.86 400.32 362.47 398.94 Z M 375.85 360.67 371.82 367.08 367.07 369.05 366.6 365.33 362.56 360.82 365.81 359.78 375.85 360.67 Z" fill-rule="evenodd"/>
<path d="M 622.67 368.44 627.84 370 624.46 374.22 615.55 379.68 609.2 380.13 603.12 383.55 595.8 384.08 595.71 380.36 604.04 372.72 608.8 372.29 616.03 373.44 622.67 368.44 Z"/>
<path d="M 386.89 342.08 387.22 341.73 392.48 346.98 397.46 347.28 395 350.81 394.98 350.85 389.8 352.81 390.16 348.46 385.87 345.05 386.89 342.08 Z"/>
<path d="M 123.63 244.53 121.2 247.95 122.68 249.6 121.36 253.55 118.9 253.47 117.15 250.03 117.53 245.37 111.78 240.28 107.89 239.13 101.96 232.25 96.37 229.7 95.83 225.09 88.54 223.33 85.55 223.46 80.86 220.75 84.27 217.29 86.92 216.91 89.69 219.71 97.25 224.06 104.13 220.73 105.92 221.8 110.92 219.05 115.19 223.23 119.79 215.79 124.17 216.27 125.49 218.31 133.39 216.44 140.6 213.16 142.35 213.57 139.82 217.6 141.79 219.28 138.67 223.1 132.95 226.43 130.18 226.94 134.16 231.91 129.08 237.72 125.98 237.47 122.2 240.88 123.63 244.53 Z"/>
<path d="M 685.74 425.63 687.33 429.53 691.18 429.91 690.85 434.47 685.9 434.44 681.56 436.2 680.3 431.18 685.74 425.63 Z"/>
<path d="M 562.71 80.77 555.46 81.15 547.38 77.81 540.44 76.56 537.25 73.79 529.54 74.91 518.15 72.86 518.45 68.3 521.77 67.85 520.69 64.64 513.19 60.63 510.03 56.73 510.58 54.34 516.75 49.68 517.9 45.85 521.93 47.54 526 45.14 531.28 47.02 544.53 44.71 549.31 42.85 554.28 43.1 557.51 39.64 559.88 41.01 565.3 40.47 569.79 42.11 572.09 40.38 581.35 37.5 588.25 40.78 588.92 43.69 586.51 50.13 588.12 53.48 587.08 57.65 584.47 59.44 583.87 62.87 578.94 67.61 573.94 68.17 571.95 69.79 563.11 71.03 561.23 74.8 562.71 80.77 Z"/>
<path d="M 345.88 68.12 340.29 57.06 337.26 57.39 328.61 53.81 323.28 50.06 317.93 50.28 313.59 49.3 312.2 46.29 313.48 43.51 313.44 37.41 324.05 37.47 335.11 39.4 344.53 38 345.31 34.34 351.39 31.76 356.65 34.76 359.55 32.5 371.38 31.55 381 34.16 381.05 38.57 388.32 39.54 387.08 44.04 390.25 51.1 392.48 51.07 398.36 55.9 402.65 56.61 408.74 60.51 412.45 58.5 416.79 59.84 418.93 63.75 425.35 67.93 424.26 75.65 417.83 78.39 413.34 83.67 406.21 86.02 402.37 88.41 392.99 91.22 391.84 88.82 384.47 88.94 377.35 87.93 372.91 86.02 369.1 82.58 364.35 84 363.07 81.12 358.02 81.38 353.82 73.68 349.53 73.1 345.88 68.12 Z"/>
<path d="M 479.02 88.05 481.1 87.7 484.26 93.77 486.1 102.28 479.18 104.01 474.73 106.36 466.72 102.02 463.45 102.17 461.44 98.65 466.17 90.05 472.7 87.06 479.02 88.05 Z"/>
<path d="M 385.56 308.44 381.58 308.72 377.09 306.9 373.7 307.27 365.85 302.74 367.33 299.2 363.04 299.14 361.72 297.1 355.59 298.89 354.77 301.77 350.59 300.73 355.75 295.17 362.14 294.18 371.62 297.03 375.5 294.55 379.65 298.12 381.78 296.95 381.64 291.53 378.86 288.8 371.8 288.04 369.61 282.81 366.29 281.56 364.5 278.47 357.98 275.21 354.9 271.21 350.44 269.96 348.56 267.6 339.34 262.8 334.2 263.34 330.27 262.45 329.07 260 320.51 263.87 316.16 263.36 311.05 264.71 312.68 260.92 327.39 256.79 330.05 254.26 333.56 254.19 334.45 251.01 339.07 248.12 343.87 248.96 351.76 246.01 354.68 246.17 359.28 248.89 359.55 252 364.26 253.66 364.04 257.89 365.96 262.16 372.53 267.49 382.28 272.28 388.59 271.11 393.74 276.38 402.65 279.4 408.12 279.98 407.61 285.64 411.48 286.51 409.58 294.35 410.86 305.13 400.2 303.88 396.04 305 390.45 303.1 384.25 304.09 385.56 308.44 Z"/>
<path d="M 558.2 611.69 552.96 612.78 550.39 611.95 542.03 612.33 533.41 611.95 531.5 613.93 526.9 614.98 519.38 615.08 516.46 616.4 512.84 615.84 501.69 617.67 489.9 616.61 487.51 618.01 482.65 617.14 484.99 609.49 483.53 605.12 481.32 603 483.42 600.78 486.7 600.48 488.11 594.85 495.79 595.1 498.28 589.21 498.13 584.83 495.06 579.76 498.71 575.2 502.82 573.21 509.21 575.09 509.92 580.72 522.19 580.55 525.66 581.97 538.32 581.67 544.4 585.29 551.7 584.81 550.48 590.92 547.87 593.06 544.15 593.55 543.49 596.65 546.03 601.24 552.78 603.66 553.53 607.13 557.53 609.06 558.2 611.69 Z"/>
<path d="M 270.84 361.55 265.71 361.69 261.8 358.65 257.57 359.32 254.14 355.04 256.22 352.31 257.42 347.74 260.76 347.1 262.53 344.2 265.69 342.75 269.03 334.97 269.12 326.75 278.47 327.1 282.32 329.44 291.01 332.18 298.35 335.64 304.28 339.9 307.73 343.54 312.11 345.05 317.26 345.01 321.91 342.59 321.42 341.04 312.44 335.43 319.67 332.18 326.13 334.13 331.06 334.34 335.82 333.35 334.98 340.25 341.02 342.34 341.02 343.85 334.89 347.16 326.02 346.78 323.94 351.09 330.18 353.27 334.4 352.79 339.82 356.16 340.37 358.53 335.29 360.71 336 362.91 330.98 363.14 327.33 364.49 320.85 365.17 318.1 361.81 309.41 363.87 305.01 363.96 298.49 360.66 294.28 362.47 289.35 360.72 282.01 360.62 279.2 355.24 270.84 361.55 Z"/>
<path d="M 558.2 611.69 557.53 609.06 553.53 607.13 552.78 603.66 546.03 601.24 543.49 596.65 544.15 593.55 547.87 593.06 550.48 590.92 551.7 584.81 558.86 582.13 564.72 581.05 574.63 581.8 570.05 587.86 571.31 591.37 569.99 592.86 571.22 599.68 577.24 601.6 579.98 601.27 582.26 598.15 586.13 595.96 595.77 593.9 598.03 591.61 606.06 591.53 606.85 593.47 611.92 592.95 616.65 588.88 620.52 587.93 621.89 593.47 624.59 595.73 621.01 603.54 617.93 608.05 609.82 611.35 604.95 611.56 603.65 609.86 598.45 610.16 594.6 608.58 586.15 609.52 578.94 611.74 568.81 610.72 558.2 611.69 Z"/>
<path d="M 616.83 215.71 620.46 216.65 629.17 216.45 629.59 219.45 634.43 220.86 631.23 225.54 639.5 230.67 642.15 234.41 644.78 235.53 648.08 242.97 650.87 245.14 651.35 249.33 645.65 248.99 642.75 245.3 644.05 243.8 640.69 240.18 636.6 242.06 642.11 246.41 645.42 250.45 642.68 252.2 635.85 253.55 625.63 251.82 621.01 249.33 614.44 248.02 609.84 248.17 605.81 241.95 610.06 241.76 612.83 238.88 621.14 236.05 622.8 234.7 618.86 231.53 610.95 233.22 609.53 236.42 603.27 241.75 596.24 239.87 592.43 240.07 582.44 233.77 583.74 227.1 589.03 223.5 591.95 224.73 603.6 223.31 612.1 220.93 611.92 216.91 616.83 215.71 Z"/>
<path d="M 294.55 161.65 292.91 163.06 288.14 161.2 285.95 163.03 279.78 164.13 277.14 162.98 275.26 158.93 271.02 157.04 265.73 156.4 263.06 153.45 265.13 148.61 260.6 144.37 255.09 147.92 250.8 151.82 249.48 143.77 243.08 144.6 241.71 142.93 247.11 139.86 249.21 134.41 252.82 130.77 259.89 128.24 262.24 125.27 267.81 121.59 271.44 118 272.9 112.19 279.82 109.82 287.18 109.46 290.41 113.85 294.09 114.3 288.4 117.97 288.78 122.26 293.27 126.26 285.37 136.96 285.33 139.48 281.39 145.21 282.92 149.48 282.92 153.58 284.84 157.19 294.55 161.65 Z"/>
<path d="M 147.17 143.82 146.02 146.39 140.97 146.29 141.81 142.67 136.11 133.21 132.11 128.63 125.8 128.12 123.52 126.67 123.81 120.27 131.91 115.05 138.96 115.98 147.3 105.16 154.84 103.88 161.37 100.18 164.84 93.43 169.42 94.76 169.3 97.86 174.72 97.86 176.98 100.69 176.32 104.39 185.89 111.01 187.71 114.12 184.37 118.15 182.64 124.6 174.24 127.17 171.8 123.53 166.98 127.96 159.97 129.44 155.88 128.47 150.46 129.85 148.14 134.84 149.29 141.26 147.17 143.82 Z"/>
<path d="M 252.68 227.05 241.6 236.58 242.78 239.13 239.48 240.92 233.27 242.49 232.96 245.38 227.16 246.65 223.98 244.38 224.35 241.25 218.8 238.14 216.5 235.63 210.75 239.61 207.28 238.75 207.34 233.22 204.6 232.61 203.25 227.69 199.29 227.13 194.3 228.17 192.11 229.96 188.92 228.45 182.95 230.77 182.88 232.61 178.84 234.6 175.56 234.14 173.82 229.52 179.83 224.43 178.11 219.56 175.5 217.08 179.79 212.96 188.19 216.37 195.65 209.97 198.1 211.71 201.57 210.18 213.01 209.03 216.55 205.13 225.37 203.76 230.79 200.85 234.75 203.19 238.88 201.54 245.92 201.61 246.49 205.16 250.76 204.93 252.15 208.27 252.35 217.78 248.33 222.59 252.68 227.05 Z"/>
<path d="M 545.44 156.05 546.94 161.22 544.8 161.66 539.27 167.74 537.45 173.28 540.02 175.83 537.87 178.47 533.96 177.84 529.36 172.71 531.22 168.59 526.33 168.02 523.61 172.16 526.39 176.46 521.33 177.22 517.26 172.26 512.59 173.33 511.02 171.8 512.82 165.99 510.85 164.66 511.38 159.75 518.76 157.88 520.4 159.79 527.15 159 530.46 159.93 531.35 162.78 534.67 163.28 540.2 158.82 545.44 156.05 Z"/>
<path d="M 578.94 487.58 574.43 489.72 571.29 488.54 574.92 485.16 578.94 487.58 Z M 543.62 479.02 548.6 484.85 548.53 488.44 545.7 490.59 542.52 488.58 544.11 484.49 543.62 479.02 Z M 518.37 459.04 512.22 463.44 513.57 457.99 518.37 459.04 Z M 539.89 454.68 540.93 459.98 536.86 461.86 529.76 455.18 528.45 451.21 532.74 449.51 535.57 453.27 539.89 454.68 Z" fill-rule="evenodd"/>
<path d="M 364.02 390.4 360.3 391.42 356.59 390.66 351.94 392.47 349.02 391.89 345.86 394.89 345.93 396.93 340.77 398.94 342.5 400.86 339.69 402.87 334.51 397.49 330.78 396.75 330.25 394.07 334.23 391.14 334.93 387.5 324.78 386.48 322.31 382.83 314.56 380.95 311.51 383.06 307.49 381.06 304.9 376.52 300.99 376.9 297.87 380.26 299.26 382.46 296.72 387.14 291.03 389.1 286.52 386.83 281.81 386.61 282.65 380.85 275.2 369.66 271.02 369.41 271.92 366.4 270.84 361.55 279.2 355.24 282.01 360.62 289.35 360.72 294.28 362.47 298.49 360.66 305.01 363.96 309.41 363.87 318.1 361.81 320.85 365.17 327.33 364.49 330.98 363.14 336 362.91 340.11 364.13 338.56 368.38 338.67 372.46 343.07 374.42 339.8 378.27 340.4 380.29 352.16 383.71 353.02 385.36 358.58 386.56 365.5 385.89 364.02 390.4 Z"/>
<path d="M 325.58 127.4 327.13 123.89 331 120.3 335 125.47 340.73 120.72 339.03 116.12 342.5 114.07 347.56 113.69 353.09 115.37 353.16 111.02 358.18 111.55 361.96 109.67 361.43 106.56 368.22 106.38 370.7 108.03 374.57 104.98 382.04 105.67 386.22 102.45 394.58 102.81 400.2 108.62 405.33 109.29 407.96 111.84 400.84 112.8 399.76 116.4 403.72 122.49 408.32 124.52 414.75 125.37 416.34 124.4 416.41 130.95 409.24 127.08 403.96 126.49 395.8 128.76 391.68 127.76 389.05 129.83 387.97 133.55 390.49 136.89 395.93 141.24 407.56 144.65 413.07 146.97 416.41 153.32 417.56 157.99 415.06 161.14 409.49 164.07 406.17 159.66 401.92 156.92 399.29 157.22 394.85 147.89 384.43 138.77 372.51 137.22 367.91 134.97 359.62 134.23 355.33 138.26 357.6 145.47 361.19 146.23 364.24 148.74 366.65 153.17 373.77 157.05 384.19 160.36 388.61 164.95 387.95 166.39 377.49 165.12 363.57 161.35 356.59 162.07 358.31 157.47 351.94 149.68 353.58 146.42 353.73 140.89 352.38 138.37 336.44 133.62 334.36 132.07 327.5 130.03 325.58 127.4 Z"/>
<path d="M 350.28 529.4 352.58 530.85 352.43 535.57 348.49 532.54 350.28 529.4 Z M 321.53 488.24 322.86 491.61 333.98 498.31 332.61 500.96 328.76 502.31 327.97 505.95 329.23 508.25 323.21 508.75 320.09 507.92 315.76 504.17 315.03 500.71 316.93 498.69 317.29 495.07 314.83 492.3 316.93 487.78 321.53 488.24 Z" fill-rule="evenodd"/>
<path d="M 638.15 467.72 629.04 468.82 627.31 471.9 622.36 473.26 620.59 470.55 622.93 466.79 627.91 468.77 631.62 467.04 630.52 463.77 633.24 463.12 638.15 467.72 Z M 682.36 576.26 675.68 580.63 672.74 579.19 678.75 573.41 685.41 572.18 685.01 575.68 682.36 576.26 Z M 701.49 570.17 699.83 573.99 694.28 571.73 696.51 568.57 695.5 561.69 691.07 557.73 697 552.97 696.47 550.8 700.69 545.89 700.01 539.54 705.8 538.35 702.99 550.2 701.07 552.01 699.61 556.38 704.43 560.74 703.3 564.06 707 566.02 701.49 570.17 Z M 712.75 481.61 714.47 479.32 718.96 477.87 722.26 481.08 725.42 485.98 721.31 487.1 716.93 482.48 712.75 481.61 Z M 762.11 463.37 763.88 465.92 767.71 467.21 763.99 470.71 757.8 468.52 762.11 463.37 Z M 672.76 415.13 677.14 419.76 670.42 419.07 671.26 416.66 665.77 413.98 669.33 411.73 672.76 415.13 Z" fill-rule="evenodd"/>
<path d="M 394.03 240.92 389.58 242.74 384.1 240.74 378.3 231.15 389.76 235.97 390.62 237.95 395.51 238.14 394.03 240.92 Z M 366.6 236.48 360.74 235.86 367.18 230.13 370.81 231.92 370.74 234.46 366.6 236.48 Z M 409.89 228.88 408.36 232.27 403.98 233.07 403.67 230.44 406.72 228.5 410.06 222.84 413.73 224.15 409.89 228.88 Z M 422.27 221.27 418.11 220.14 419.29 217.36 423.55 217.36 422.27 221.27 Z" fill-rule="evenodd"/>
<path d="M 215.86 97.18 214.67 98 212.59 106.33 205.47 108.22 202.9 107.25 195.65 108.47 189.65 111.61 187.71 114.12 185.89 111.01 176.32 104.39 176.98 100.69 174.72 97.86 169.3 97.86 169.42 94.76 164.84 93.43 161.37 100.18 154.84 103.88 147.3 105.16 148.69 97.28 141.75 89.02 141.73 81.08 158.87 80.85 162.4 78.3 166.19 80.25 175.34 79.24 180.12 75.92 183.55 75.47 191.82 76.53 196.84 79.52 203.28 76.39 206.79 72.95 214.29 74.32 217.76 77.83 215.06 80.39 207.04 82.02 209.58 85.59 209.49 88.57 214.29 89.4 215.84 91.5 215.86 97.18 Z"/>
<path d="M 259.43 418.51 255.18 410.34 254.76 405.11 259.76 404.5 265.58 410.11 268.96 408.75 272.15 409.59 272.48 405.19 270.29 400.49 276.08 401.13 280 400.3 283.14 403.45 287.85 402.64 288.8 408.22 291.9 415.23 297.96 422.9 296.43 425.8 298.91 428.6 302.67 426.29 308.33 430.36 313.41 431.29 315.38 428.33 319.43 428.88 323.1 426.29 324.49 427.79 324.41 432.68 328.37 443.47 331.73 446.85 332.83 452.03 329.34 453.73 326.86 456.82 329.47 458.07 326.91 461 327.57 464.39 330.51 467.73 337.63 472.19 336.92 475.76 342.23 478.96 342.1 481.13 333.32 481.82 331.11 476.6 326.09 473.51 323.08 474.64 319.81 469.76 313.7 465.72 313.92 462.93 308.42 456.39 305.05 448.79 302.51 447.65 290.86 447.56 285.66 450.32 285.81 453.84 282.85 455.59 280.28 461.08 282.21 464.16 277.32 466.35 277.87 472.92 280.51 478.46 277.98 485.69 276.13 480.88 268.94 478.33 266.04 474.02 268.89 471.55 267.3 460.38 264.27 452.48 267.72 452.02 270.82 444.41 266.97 439.46 267.63 436.84 265.89 433.47 265.98 428.41 262.92 424.55 260.03 424.28 261.77 419.77 259.43 418.51 Z"/>
<path d="M 402.37 88.41 406.21 86.02 413.34 83.67 417.83 78.39 424.26 75.65 425.35 67.93 431.67 69.19 434.68 68.74 438.13 70.58 439.65 67.84 436.85 66.49 442.46 62.45 444.81 63.31 451.93 59.69 457.66 55.62 459.56 55.46 459.07 49.86 466.11 50.67 477.19 49.55 477.74 56.56 484.95 60.28 481.72 66.88 487.27 77.02 488.47 81.35 480.17 81.91 477.52 79.92 471.94 79.95 466.81 75.7 465.02 72.86 459.36 72.77 451.4 74.65 446.25 77.48 443.55 80.67 445.12 82.34 441.45 85.79 426.32 93.41 420.9 94.42 412.19 92.64 402.37 88.41 Z"/>
<path d="M 152.36 244.58 147.92 248.61 143.05 248.64 138.28 246.59 135.27 243.41 130.93 244.46 125.85 242.34 123.63 244.53 122.2 240.88 125.98 237.47 129.08 237.72 134.16 231.91 130.18 226.94 132.95 226.43 138.67 223.1 141.79 219.28 139.82 217.6 142.35 213.57 144.78 210.16 147.74 202.82 150.53 205.01 154.97 202.45 160.3 204.08 163.44 210.72 169.97 216.96 175.5 217.08 178.11 219.56 179.83 224.43 173.82 229.52 175.56 234.14 171.76 235.31 167.18 238.37 159.82 237.45 153.65 238.65 151.66 240.86 152.36 244.58 Z"/>
<path d="M 426.38 625.88 425.26 628.43 421.28 625.75 423.75 623.13 426.38 625.88 Z M 444.98 579.38 445.6 585.44 442.18 586.74 443.55 589.55 442.24 594.8 438.75 595.35 433.26 592.88 417.87 593.46 414.18 590.13 409.62 591.25 405.97 589.47 399.42 588.58 394.96 590.05 389.16 589.28 386.49 590.54 377.53 589.47 372.09 584.21 374.46 581.89 373.31 577.79 376.09 573.2 375.34 570.3 377.18 566.93 376.45 563.3 379.65 555.96 381.38 564.04 384.5 565.92 388.23 565.81 390.71 563.58 389.69 551.65 392.3 548.57 395.16 551.24 396.24 562.12 402.37 563.9 415.7 564.6 420.24 563.27 422.8 561.2 422.54 557.68 427.09 556.51 433.11 560.33 431.98 565.69 424.84 567.68 433.37 569.89 437.71 568.6 439.34 574.22 438.88 576.64 441.45 578.87 444.98 579.38 Z" fill-rule="evenodd"/>
<path d="M 488.47 81.35 487.27 77.02 481.72 66.88 484.95 60.28 477.74 56.56 477.19 49.55 466.11 50.67 459.07 49.86 461.28 43.54 468.05 45.58 469.6 40.24 474.97 38.49 477.5 39.13 481.1 36.75 485.68 35.55 488.62 36.76 489.92 33.14 497.98 31.71 507.29 35.28 510.03 35.17 513.48 37.5 524.93 42.66 526 45.14 521.93 47.54 517.9 45.85 516.75 49.68 510.58 54.34 510.03 56.73 513.19 60.63 520.69 64.64 521.77 67.85 518.45 68.3 514.45 67.59 510.29 68.74 505.14 74.25 502.22 74.39 493.6 77.25 492.65 79.29 488.47 81.35 Z"/>
<path d="M 425.35 67.93 418.93 63.75 416.79 59.84 412.45 58.5 408.74 60.51 402.65 56.61 398.36 55.9 392.48 51.07 390.25 51.1 387.08 44.04 388.32 39.54 381.05 38.57 381 34.16 383.81 31.6 394.49 32.01 397.3 28.91 405.51 27.32 406.44 25.14 412.19 28.63 416.08 26.46 420.52 26.54 420.57 20.83 423.49 18.49 431.76 21.36 437.07 16.9 441.38 18.3 442.44 21.33 450.87 19.98 456.84 20.59 459.03 18.13 464.45 17.72 466.53 24.9 470.04 29.41 480.66 30.31 482.85 33.88 485.68 35.55 481.1 36.75 477.5 39.13 474.97 38.49 469.6 40.24 468.05 45.58 461.28 43.54 459.07 49.86 459.56 55.46 457.66 55.62 451.93 59.69 444.81 63.31 442.46 62.45 436.85 66.49 439.65 67.84 438.13 70.58 434.68 68.74 431.67 69.19 425.35 67.93 Z"/>
<path d="M 562.71 80.77 561.23 74.8 563.11 71.03 571.95 69.79 573.94 68.17 578.94 67.61 583.87 62.87 584.47 59.44 587.08 57.65 588.12 53.48 586.51 50.13 588.92 43.69 588.25 40.78 595.93 39.48 597.41 37.34 608.25 35.91 610.66 33.8 611.59 29.95 614 28.47 610.66 25.42 612.85 19.93 610.59 17.89 609.62 13.82 604.69 11.45 601.5 6.86 602.05 4.54 605.79 3.75 608.62 1.38 616.47 1 621.05 4.52 627.18 3.9 633.55 6.51 640.32 8.14 643.41 12.17 649.38 14.03 649.6 20.8 651.42 30.31 653.21 35.08 649.83 38.62 643.04 37.26 641.66 38.87 632.95 44.66 625.5 45.16 626.6 49.04 624.68 52.5 626.27 58.6 624.94 62.52 627.86 65.5 625.61 69.84 627.47 72.25 621.19 73.94 622.27 75.8 615.48 77.5 614.44 82.14 607.58 86.2 606.28 90.43 599.49 92.05 598.23 87.98 595 83.9 589.14 81.94 568.73 81.64 562.71 80.77 Z"/>
<path d="M 797.25 481.08 799 487.1 795.95 490.66 796.59 492.67 793.34 495.35 792.43 499.23 789.03 504.17 786.5 505.39 783.23 509.54 785.27 512.4 784.12 516.58 779.36 514.26 772.53 517.72 764.39 527.8 756.27 531.34 751.43 526.67 753.35 523.06 754.37 516.07 753.99 512.86 750.19 511.61 749.33 506.92 754.9 504.78 757.51 501.59 757.4 499.12 764.17 495.28 765.74 493 770.34 490.59 776.73 488.62 782.46 485.95 789.8 483.55 794.09 483.4 797.25 481.08 Z"/>
</g>
</svg>